# xmcd CD database file
# Copyright (C) 1995-1998 Ti Kan
#
# Track frame offsets:
#	182
#	20622
#	41055
#	55217
#	74345
#	92422
#	109785
#	125100
#	138982
#	155677
#	169927
#	191477
#	208312
#	235037
#
# Disc length: 3352 seconds
#
# Revision: 1
# Processed by: cddbd v1.4PL0 Copyright (c) Steve Scherf et al.
# Submitted via: CDex 1.30
#
DISCID=cb0d160e
DTITLE=Various Artist - http://www.bluesweb.com
DYEAR=2001
DGENRE=Blues
TTITLE0=Shakedown-Popa Chubby
TTITLE1=Johnny Guitar Live-Johnny Winter
TTITLE2=Gettin' Down-Bill Perry
TTITLE3=Don't Start Crying-Larry Garner
TTITLE4=High Expectations-The Hoax
TTITLE5=Leaving New York-Steve Johnson
TTITLE6=Frosty-Albert Collins
TTITLE7=I've Got Other Plans-Jim Thackery
TTITLE8=Tell Me Why-Duke Robillard
TTITLE9=Stevie Shuffle-Steve Larocca
TTITLE10=Barbara-Nico Wayne Toussaint
TTITLE11=Cold Sweat-The Bone Shakers
TTITLE12=You Belong To Me-David Gogo
TTITLE13=Laoded 6-Shooter-Gwyn Ashton
EXTD=YEAR: 2001  ID3G:   0
EXTT0=
EXTT1=
EXTT2=
EXTT3=
EXTT4=
EXTT5=
EXTT6=
EXTT7=
EXTT8=
EXTT9=
EXTT10=
EXTT11=
EXTT12=
EXTT13=
PLAYORDER=
